<svg id="blankLogo" xmlns="http://www.w3.org/2000/svg" viewBox="0 0 923 242.9">
  <!--Letter "B"-->
  <path class="blankLetter"  d="M709.1 46.8h18V114h0.6c3.7-5.4 7.5-10.4 11-14.9l42.6-52.4h22.4L753.2 106l54.4 80.3h-21.3l-46-68.5 -13.2 15.3v53.2h-18V46.8z"/>
  <!--Letter "L"-->
  <path class="blankLetter"  d="M550.1 186.3V46.8h19.7l44.7 70.6c10.3 16.4 18.4 31 25 45.3l0.4-0.2c-1.7-18.6-2.1-35.6-2.1-57.3V46.8h17v139.5h-18.2l-44.3-70.8c-9.7-15.5-19-31.5-26.1-46.6l-0.6 0.2c1 17.6 1.4 34.4 1.4 57.5v59.6H550.1z"/>
  <!--The Underscore-->
  <path class="blankUnderscore"  d="M496.4 181.1v10.4H392.9v-10.4H496.4z"/>
  <!--Letter "N"-->
  <path class="blankLetter"  d="M253.8 46.8h18v124.4h59.6v15.1h-77.6V46.8z"/>
  <!--Letter "K"-->
  <path class="blankLetter"  d="M112.4 48.5c7.9-1.7 20.3-2.9 32.9-2.9 18 0 29.6 3.1 38.3 10.1 7.2 5.4 11.6 13.7 11.6 24.6 0 13.5-8.9 25.3-23.6 30.6v0.4c13.2 3.3 28.8 14.3 28.8 35 0 12-4.8 21.1-11.8 27.9 -9.7 8.9-25.5 13-48.2 13 -12.4 0-21.9-0.8-27.9-1.7V48.5zM130.4 105.6h16.4c19 0 30.2-9.9 30.2-23.4 0-16.4-12.4-22.8-30.6-22.8 -8.3 0-13 0.6-15.9 1.2V105.6zM130.4 172.5c3.5 0.6 8.7 0.8 15.1 0.8 18.6 0 35.8-6.8 35.8-27.1 0-19-16.4-26.9-36-26.9h-14.9V172.5z"/>
  <!-- Background -->
  <rect class="blankBackground" x="59.5" y="19.9" width="801" height="189" style="fill:none;stroke-width:4;stroke:#414042"/>
</svg>
