<svg xmlns="http://www.w3.org/2000/svg" viewBox="0 0 805.4 193.4">
  <style type="text/css">
    
	.st0{fill:#FFFFFF;}
	.st1{fill:none;stroke:#FFFEFF;stroke-width:4.4179;stroke-miterlimit:10;}

  </style>
    <path class="st0" d="M651.8 29.1h18v67.2h0.6c3.7-5.4 7.5-10.4 11-14.9L724 29h22.4l-50.5 59.3 54.4 80.3H729l-46-68.5 -13.2 15.3v53.2h-18L651.8 29.1 651.8 29.1z"/>
    <path class="st0" d="M492.8 168.6V29.1h19.7l44.7 70.6c10.3 16.4 18.4 31 25 45.3l0.4-0.2c-1.7-18.6-2.1-35.6-2.1-57.3V29.1h17v139.5h-18.2L535 97.8c-9.7-15.5-19-31.5-26.1-46.6l-0.6 0.2c1 17.6 1.4 34.4 1.4 57.5v59.6h-16.9L492.8 168.6 492.8 168.6z"/>
    <path class="st0" d="M439.1 163.4v10.4H335.6v-10.4H439.1z"/>
    <path class="st0" d="M196.5 29.1h18v124.4h59.6v15.1h-77.6L196.5 29.1 196.5 29.1z"/>
    <path class="st0" d="M55.1 30.8c7.9-1.7 20.3-2.9 32.9-2.9 18 0 29.6 3.1 38.3 10.1 7.2 5.4 11.6 13.7 11.6 24.6 0 13.5-8.9 25.3-23.6 30.6v0.4c13.2 3.3 28.8 14.3 28.8 35 0 12-4.8 21.1-11.8 27.9 -9.7 8.9-25.5 13-48.2 13 -12.4 0-21.9-0.8-27.9-1.7v-137L55.1 30.8 55.1 30.8zM73.1 87.9h16.4c19 0 30.2-9.9 30.2-23.4 0-16.4-12.4-22.8-30.6-22.8 -8.3 0-13 0.6-15.9 1.2L73.1 87.9 73.1 87.9zM73.1 154.8c3.5 0.6 8.7 0.8 15.1 0.8 18.6 0 35.8-6.8 35.8-27.1 0-19-16.4-26.9-36-26.9H73.1L73.1 154.8 73.1 154.8z"/>
  <rect x="2.2" y="2.2" class="st1" width="801" height="189"/>
</svg>
